<?xml version="1.0" encoding="utf-8"?>
<!-- Generator: Adobe Illustrator 26.1.0, SVG Export Plug-In . SVG Version: 6.00 Build 0)  -->
<svg version="1.1" id="Layer_1" xmlns="http://www.w3.org/2000/svg" xmlns:xlink="http://www.w3.org/1999/xlink" x="0px" y="0px"
	 viewBox="0 0 100 100" style="enable-background:new 0 0 100 100;" xml:space="preserve">
<g>
	<path d="M12.54,54.18c-1.41-1.06-1.61-2.86-2.57-4.25c-1.46,0.11-2.86,0.53-4.2,1.12c-0.26,0.12-0.47,0.56-0.55,0.88
		c-0.29,1.22-0.52,2.45-0.79,3.68c-0.08,0.38-0.23,0.75-0.38,1.22c-0.78-0.45-1.17-0.92-1.03-1.69c0.03-0.17,0.02-0.34,0.06-0.5
		c1.01-3.83,1.4-7.77,2.03-11.66c0.14-0.91,0.45-1.79,0.68-2.68c0.23-0.89,0.44-1.79,0.7-2.67c0.08-0.25,0.34-0.64,0.49-0.62
		c0.27,0.02,0.54,0.27,0.75,0.48c0.74,0.75,1.04,1.71,1.27,2.7c0.46,2.01,0.94,4.01,1.37,6.03c0.48,2.24,1.28,4.35,2.26,6.4
		C12.85,53.07,13.26,53.58,12.54,54.18z M7.64,40.23c-1.43,2.92-1.71,5.96-1.96,9.13c1.41-0.29,2.62-0.55,3.89-0.81
		C8.91,45.69,8.28,42.96,7.64,40.23z"/>
	<path d="M33.42,50.81c0.6-0.3,1.13,0,1.67,0.2c0.84,0.31,1.66,0.42,2.58,0.25c1.43-0.26,2.24-1.12,2.69-2.36
		c0.26-0.7,0.42-1.47,0.44-2.21c0.05-1.56-0.78-2.44-2.34-2.55c-0.7-0.05-1.42,0.06-2.13,0.12c-1.78,0.16-2.79-0.99-2.38-2.73
		c0.08-0.32,0.13-0.67,0.3-0.94c0.6-0.95,1.14-1.97,1.89-2.79c1.08-1.17,2.94-0.68,3.44,0.8c0.05,0.14-0.01,0.31-0.03,0.59
		c-0.34-0.17-0.59-0.28-0.84-0.41c-0.83-0.43-1.2-0.44-1.76,0.27c-0.59,0.75-1.12,1.58-1.55,2.43c-0.39,0.77,0.01,1.25,0.91,1.27
		c0.88,0.02,1.76,0.04,2.63,0.11c1.51,0.11,2.37,1.13,2.82,2.4c0.73,2.06,0.56,4.08-0.91,5.81c-1.68,1.98-4.3,2.35-6.64,1.1
		C33.62,51.84,33.65,51.8,33.42,50.81z"/>
	<path d="M61.77,45.35c-0.39-2.57-0.76-5.02-1.13-7.5c0.8-0.22,1.16,0.1,1.3,0.72c0.23,1.02,0.45,2.05,0.63,3.08
		c0.32,1.9,0.57,3.81,0.92,5.71c0.1,0.53,0.07,0.83-0.41,1.15c-0.69,0.45-1.27,1.07-1.94,1.53c-1.07,0.73-2.2,0.36-3.28,0.01
		c-0.62-0.2-1.16-1.32-1.02-2.03c0.39-1.99,1.57-3.02,3.62-2.88c0.21,0.01,0.41,0.07,0.62,0.1C61.26,45.28,61.46,45.31,61.77,45.35z
		 M62.15,47.67c-0.54-1.13-1.72-1.51-2.81-0.93c-0.73,0.39-1.15,1.25-0.86,1.75c0.27,0.47,1.08,0.58,1.84,0.23
		c0.08-0.03,0.15-0.08,0.22-0.13C61.08,48.3,61.62,47.98,62.15,47.67z"/>
	<path d="M46.41,51.69c-0.19-0.54-0.42-0.94-0.47-1.37c-0.3-2.46-0.56-4.92-0.85-7.38c-0.04-0.32-0.15-0.64-0.24-1.03
		c-0.43,0-0.8,0-1.17,0c-0.95-0.02-1.04-0.13-1.03-1.3c0.68-0.08,1.37-0.16,2.13-0.25c-0.02-0.42-0.03-0.75-0.05-1.08
		c-0.02-0.25-0.06-0.5-0.08-0.75c-0.04-0.47-0.12-1.03,0.51-1.11c0.68-0.09,0.77,0.49,0.85,1.01c0.09,0.62,0.19,1.24,0.27,1.81
		c0.96,0.63,2.33-0.19,3.15,1.02c-0.92,0.68-1.95,0.39-2.95,0.66c0.07,1.25,0.09,2.5,0.22,3.74c0.15,1.51,0.39,3,0.59,4.5
		C47.4,50.99,47.4,50.99,46.41,51.69z"/>
	<path d="M16.73,54.62c-0.63-0.45-0.78-0.94-0.37-1.63c0.38-0.64,0.69-1.32,1.01-1.95c-0.79-1.22-2.53-1.34-3-2.82
		c0.53-0.6,1.02-0.34,1.49-0.04c0.77,0.51,1.52,1.04,2.37,1.63c0.26-0.41,0.5-0.79,0.75-1.15c0.3-0.45,0.56-0.96,0.96-1.31
		c0.2-0.18,0.72-0.17,1-0.04c0.39,0.17,0.44,0.59,0.22,0.97c-0.25,0.44-0.54,0.85-0.8,1.28c-0.28,0.46-0.55,0.92-0.85,1.41
		c0.72,0.71,1.37,1.36,2.02,2.01c0.36,0.36,0.84,0.81,0.41,1.26c-0.5,0.52-0.89-0.14-1.23-0.44c-0.6-0.52-1.15-1.09-1.86-1.78
		c-0.39,0.57-0.72,1.03-1.03,1.51C17.53,53.98,17.39,54.56,16.73,54.62z"/>
	<path d="M22.75,39.24c1.01-0.17,1.41,0.04,1.63,0.92c0.22,0.9,0.38,1.81,0.51,2.73c0.28,1.87,0.51,3.75,0.81,5.62
		c0.24,1.49,0.51,2.99,0.86,4.46c0.16,0.67,0.01,1.05-0.67,1.28c-0.65-0.2-0.79-0.8-0.9-1.37c-0.35-1.77-0.69-3.55-0.98-5.33
		c-0.38-2.32-0.73-4.66-1.08-6.98C22.85,40.13,22.8,39.68,22.75,39.24z"/>
	<path d="M70.39,47.51c-0.02-1.5,0.74-2.34,1.84-2.93c0.46-0.25,0.94-0.25,1.44,0.04c0.5,0.29,1.05,0.5,1.59,0.69
		c1.02,0.36,1.92,1.39,1.94,2.41c0.01,0.71-0.36,1.31-0.95,1.69c-0.56,0.36-1.19,0.63-1.8,0.91c-2.08,0.97-3.38-0.1-4.01-2.21
		C70.38,47.87,70.4,47.61,70.39,47.51z M75.84,47.21c-0.75-0.65-1.46-1.07-2.4-1.14c-0.67-0.05-1.04,0.3-1.31,0.78
		c-0.29,0.51-0.53,1.12-0.15,1.66c0.21,0.3,0.7,0.64,1,0.58C74.12,48.89,75.27,48.58,75.84,47.21z"/>
	<path d="M53.97,45.38c0.95,0.09,1.51,0.72,1.42,1.69c-0.11,1.14-0.53,2.21-1.37,3.03c-0.92,0.9-2.39,0.72-3.13-0.47
		c-0.88-1.4-1.1-2.97-0.69-4.59c0.06-0.26,0.42-0.64,0.59-0.62c0.26,0.04,0.55,0.35,0.68,0.61c0.12,0.23,0.03,0.56,0.03,0.85
		c0.02,0.75,0.02,1.51,0.08,2.26c0.04,0.49,0.32,0.96,0.84,0.95c0.3,0,0.67-0.3,0.88-0.57c0.54-0.7,1-1.46,0.67-2.43
		C53.91,45.89,53.97,45.63,53.97,45.38z"/>
	<path d="M68.43,50.21c-0.63,0.27-0.89-0.07-1.01-0.49c-0.35-1.2-0.7-2.4-0.97-3.62c-0.18-0.85-0.22-1.72-0.33-2.57
		c0.8-0.25,1.07-0.17,1.29,0.46c0.19,0.55,0.32,1.13,0.42,1.71c0.21,1.19,0.41,2.39,0.58,3.59C68.47,49.6,68.43,49.92,68.43,50.21z"
		/>
	<path d="M67.1,38.63c0.83-0.04,1.37,0.28,1.33,0.81c-0.03,0.46-0.37,0.64-0.77,0.64C67.14,40.08,66.93,39.5,67.1,38.63z"/>
</g>
<g>
	<path d="M48.53,75.1c0.11-0.53,0.2-1.05,0.32-1.58c0.27-1.21,0.54-2.42,0.81-3.63c0.07-0.33,0.28-0.59,0.51-0.82
		c1.96-2.05,3.94-4.08,6.16-5.85c0.39-0.31,0.4-0.43,0.15-0.86c-0.33-0.56-0.65-1.12-0.98-1.69c-0.2-0.35-0.16-0.58,0.15-0.84
		c0.73-0.64,1.48-1.26,2.19-1.92c0.86-0.8,1.61-1.7,2.38-2.59c0.69-0.79,1.34-1.61,1.93-2.49c0.1-0.15,0.26-0.26,0.39-0.38
		c0.32,0.26,0.43,0.56,0.28,0.9c-0.16,0.36-0.36,0.71-0.56,1.06c-0.72,1.24-1.45,2.49-2.19,3.72c-0.38,0.64-0.39,1.3-0.15,1.97
		c0.05,0.14,0.18,0.25,0.29,0.36c0.09,0.1,0.2,0.17,0.3,0.26c0.16,0.15,0.2,0.33,0.1,0.52c-0.06,0.13-0.14,0.25-0.2,0.38
		c-0.03,0.07-0.05,0.14-0.08,0.21c0.01,0.01,0.03,0.02,0.04,0.03c0.07-0.03,0.13-0.07,0.2-0.1c0.23-0.1,0.46-0.21,0.69-0.29
		c0.19-0.06,0.29,0.01,0.38,0.19c0.1,0.21,0.09,0.42,0.04,0.64c-0.04,0.17-0.09,0.34-0.12,0.52c-0.01,0.09,0.01,0.18,0.02,0.26
		c0.02,0.01,0.04,0.01,0.05,0.02c0.05-0.04,0.11-0.08,0.14-0.13c0.5-0.96,1.3-1.62,2.2-2.18c0.23-0.14,0.46-0.27,0.68-0.41
		c0.57-0.35,0.89-0.86,0.93-1.52c0.03-0.45,0.01-0.91,0.03-1.36c0.01-0.3,0.04-0.61,0.08-0.91c0.03-0.22,0.16-0.4,0.33-0.54
		c0.72-0.6,1.43-1.21,2.15-1.81c0.27-0.22,0.58-0.33,0.93-0.33c0.18,0,0.29,0.08,0.34,0.25c0.03,0.11,0.05,0.22,0.05,0.33
		c0.03,0.8,0.04,1.61,0.07,2.41c0.04,0.92-0.01,1.83-0.21,2.73c-0.15,0.66-0.37,1.29-0.75,1.85c-0.3,0.44-0.69,0.78-1.15,1.05
		c-1.11,0.65-2.21,1.31-3.31,1.98c-0.17,0.11-0.29,0.3-0.47,0.49c0.23,0.1,0.41,0.21,0.6,0.26c0.31,0.08,0.63,0.14,0.95,0.19
		c0.3,0.05,0.56-0.05,0.73-0.3c0.25-0.37,0.61-0.58,0.97-0.82c0.81-0.53,1.62-1.08,2.4-1.64c0.38-0.27,0.6-0.68,0.72-1.13
		c0.23-0.87,0.6-1.67,1.09-2.42c0.52-0.8,1.06-1.59,1.59-2.39c0.04-0.05,0.07-0.11,0.12-0.15c0.1-0.07,0.2-0.15,0.31-0.16
		c0.1-0.01,0.2,0.27,0.18,0.4c-0.05,0.33-0.12,0.65-0.15,0.98c-0.02,0.27,0,0.54,0,0.84c0.2-0.1,0.39-0.17,0.56-0.28
		c0.3-0.2,0.59-0.42,0.86-0.65c0.15-0.12,0.28-0.28,0.39-0.44c0.16-0.23,0.35-0.41,0.6-0.53c1.14-0.56,2.28-1.14,3.52-1.44
		c0.22-0.05,0.41-0.16,0.59-0.31c0.47-0.43,1.05-0.67,1.67-0.78c0.62-0.11,1.25-0.2,1.88-0.27c0.64-0.08,1.29-0.13,1.94-0.2
		c0.23-0.03,0.41,0.04,0.54,0.22c0.44,0.59,0.99,1.07,1.53,1.56c0.16,0.15,0.21,0.14,0.3-0.06c0.12-0.26,0.34-0.32,0.59-0.3
		c0.3,0.02,0.57-0.07,0.84-0.18c0.05-0.02,0.09-0.05,0.17-0.09c-0.09-0.04-0.15-0.07-0.21-0.1c-0.61-0.27-1.22-0.53-1.83-0.8
		c-0.11-0.05-0.21-0.12-0.31-0.2c-0.1-0.09-0.12-0.21-0.04-0.32c0.08-0.1,0.17-0.2,0.28-0.25c0.71-0.34,1.43-0.66,2.14-1
		c0.1-0.05,0.19-0.11,0.31-0.19c-0.27-0.09-0.49-0.01-0.71,0.02c-1.01,0.13-2.02,0.28-3.03,0.41c-0.31,0.04-0.53-0.15-0.49-0.47
		c0.08-0.67,0.17-1.35,0.28-2.02c0.01-0.09,0.1-0.2,0.18-0.25c0.17-0.1,0.37-0.17,0.55-0.25c0.16-0.08,0.33-0.15,0.49-0.25
		c0.29-0.19,0.45-0.46,0.48-0.81c0.01-0.18-0.05-0.28-0.22-0.31c-0.15-0.03-0.3-0.04-0.45-0.04c-0.92-0.01-1.84-0.02-2.76-0.03
		c-0.4-0.01-0.81-0.03-1.21-0.06c-0.25-0.01-0.48-0.12-0.68-0.27c-0.54-0.42-1.09-0.83-1.62-1.26c-0.7-0.56-1.38-1.13-2.07-1.7
		c-0.32-0.27-0.6-0.58-0.77-0.98c-0.11-0.26-0.15-0.53-0.12-0.81c0.03-0.26-0.01-0.5-0.07-0.74c-0.46-2.06-0.13-3.98,1-5.77
		c0.44-0.7,0.88-1.4,1.33-2.1c0.07-0.12,0.18-0.23,0.3-0.3c0.18-0.11,0.27-0.05,0.26,0.16c0,0.24-0.03,0.48-0.04,0.72
		c-0.01,0.2-0.06,0.4,0.09,0.59c0.19-0.13,0.37-0.26,0.56-0.4c0.15,0.26,0.33,0.46,0.27,0.79c-0.08,0.45,0.07,0.73,0.49,0.92
		c1.01,0.46,2.05,0.85,3.17,0.96c0.38,0.04,0.77,0.01,1.15,0.01c0.48-0.01,0.94,0.11,1.37,0.33c0.87,0.46,1.73,0.93,2.57,1.42
		c0.23,0.13,0.4,0.38,0.59,0.57c0.06,0.06,0.12,0.13,0.18,0.19c0.16,0.15,0.33,0.21,0.54,0.1c0.21-0.11,0.44-0.21,0.65-0.31
		c0.08-0.04,0.16-0.09,0.24-0.1c0.13-0.01,0.26,0,0.38,0.04c0.06,0.02,0,0.28-0.09,0.38c-0.21,0.22-0.42,0.44-0.63,0.67
		c-0.1,0.11-0.2,0.22-0.28,0.34c-0.08,0.13-0.05,0.18,0.1,0.18c0.67-0.02,1.35-0.03,2.02-0.07c0.25-0.01,0.47-0.13,0.67-0.29
		c0.28-0.23,0.45-0.21,0.7,0.06c0.68,0.74,1.37,1.48,2.06,2.22c0.11,0.12,0.21,0.25,0.33,0.36c0.31,0.27,0.4,0.62,0.43,1.01
		c0.07,0.85,0.15,1.7,0.23,2.54c0.02,0.24,0.03,0.48,0.07,0.72c0.05,0.26,0.11,0.52,0.23,0.76c0.37,0.79,0.26,1.32-0.42,1.88
		c-0.38,0.31-0.76,0.63-1.14,0.94c-0.21,0.17-0.22,0.33-0.01,0.5c0.35,0.28,0.69,0.55,1.07,0.79c0.49,0.3,0.71,0.74,0.77,1.29
		c0.13,1.31-0.3,2.45-1.06,3.5c-0.16,0.22-0.33,0.41-0.5,0.63c-0.14,0.19-0.28,0.38-0.42,0.57c-0.14,0.19-0.3,0.23-0.52,0.16
		c-0.16-0.05-0.27,0.02-0.26,0.2c0.01,0.22,0.04,0.43,0.06,0.65c0.05,0.42-0.12,0.74-0.47,0.96c-0.13,0.08-0.26,0.18-0.38,0.3
		c0.19-0.02,0.39-0.03,0.58-0.05c0.18-0.02,0.35-0.05,0.53-0.07c0.26-0.03,0.4,0.05,0.46,0.31c0.1,0.46,0.18,0.93,0.26,1.39
		c0.1,0.56,0.19,1.12,0.28,1.67c0.04,0.25-0.04,0.39-0.28,0.48c-0.1,0.04-0.2,0.08-0.29,0.12c0,0.02,0,0.04,0,0.06
		c0.14,0.03,0.28,0.07,0.42,0.09c0.32,0.07,0.43,0.22,0.38,0.53c-0.02,0.11-0.04,0.21-0.08,0.32c-0.28,0.87-0.57,1.74-0.86,2.61
		c-0.03,0.1-0.06,0.21-0.11,0.31c-0.07,0.14-0.17,0.17-0.3,0.08c-0.02-0.01-0.03-0.02-0.05-0.03c-0.34-0.36-0.8-0.44-1.25-0.53
		c-0.33-0.07-0.52,0.1-0.49,0.44c0.02,0.31-0.03,0.6-0.17,0.88c-0.17,0.34-0.3,0.71-0.45,1.06c-0.14,0.31-0.33,0.58-0.62,0.78
		c-0.05,0.04-0.09,0.1-0.12,0.16c-0.12,0.22-0.24,0.45-0.36,0.68c-0.04-0.01-0.06-0.02-0.08-0.03c-0.52-0.34-1.03-0.69-1.55-1.03
		c-0.23-0.15-0.4-0.35-0.55-0.59c-0.1-0.17-0.25-0.31-0.38-0.46c-0.06-0.07-0.12-0.04-0.17,0.03c-0.07,0.11-0.1,0.21-0.05,0.33
		c0.07,0.15,0.14,0.29,0.19,0.45c0.06,0.18,0.11,0.36,0.15,0.54c0.04,0.23-0.07,0.41-0.29,0.46c-0.17,0.04-0.34,0.06-0.51,0.06
		c-0.44-0.02-0.88-0.05-1.31-0.08c-0.56-0.05-0.86-0.49-0.74-1.08c0.08-0.38,0.19-0.74,0.29-1.11c0.02-0.08,0.05-0.16,0.08-0.27
		c-0.53,0.37-0.91,0.91-1.56,1.09c-0.05-0.25-0.17-0.48-0.07-0.74c0.27-0.7,0.54-1.41,0.79-2.12c0.07-0.2,0.07-0.42,0.1-0.64
		c0.01-0.1-0.04-0.14-0.13-0.13c-0.02,0-0.04,0-0.06,0c-0.44-0.02-0.48,0.01-0.63,0.41c-0.05,0.12-0.1,0.25-0.16,0.37
		c-0.18,0.37-0.32,0.74-0.36,1.15c-0.04,0.44-0.31,0.74-0.72,0.84c-0.46,0.12-0.94,0.19-1.42,0.27c-0.26,0.05-0.53,0.08-0.79,0.12
		c-0.05,0.01-0.09,0.03-0.15,0.05c0.07,0.14,0.13,0.28,0.19,0.41c0.13,0.31,0.08,0.47-0.2,0.65c-0.14,0.09-0.3,0.15-0.46,0.2
		c-1.05,0.28-2.09,0.56-3.14,0.84c-0.06,0.02-0.12,0.03-0.21,0.04c0.08,0.06,0.13,0.09,0.18,0.14c0.07,0.07,0.15,0.13,0.2,0.21
		c0.14,0.21,0.09,0.43-0.15,0.52c-0.24,0.08-0.49,0.12-0.73,0.17c-0.17,0.03-0.34,0.07-0.51,0.09c-0.4,0.06-0.68,0.28-0.86,0.63
		c-0.19,0.37-0.26,0.74-0.13,1.15c0.12,0.37,0.08,0.72-0.22,0.99c-0.28,0.26-0.56,0.52-0.87,0.75c-0.28,0.21-0.55,0.12-0.69-0.21
		c-0.17-0.41-0.18-0.85-0.07-1.28c0.09-0.35,0.22-0.68,0.33-1.03c0.02-0.07,0.05-0.14,0.07-0.21c0.05-0.24-0.03-0.34-0.25-0.45
		c-0.31-0.15-0.62-0.31-0.9-0.5c-0.29-0.19-0.33-0.41-0.1-0.69c0.24-0.3,0.51-0.57,0.77-0.85c0.32-0.34,0.64-0.67,0.95-1.01
		c0.04-0.04,0.07-0.1,0.11-0.17c-0.23-0.12-0.45-0.09-0.66-0.06c-0.31,0.04-0.57,0.21-0.78,0.44c-0.51,0.55-1.03,1.08-1.55,1.63
		c-0.06,0.06-0.12,0.13-0.18,0.2c-0.14,0.18-0.1,0.26,0.11,0.35c0.27,0.11,0.54,0.22,0.79,0.36c0.25,0.13,0.44,0.34,0.45,0.64
		c0,0.17-0.04,0.35-0.08,0.52c-0.16,0.62-0.34,1.24-0.5,1.87c-0.08,0.29-0.26,0.45-0.55,0.5c-0.44,0.08-0.87,0.17-1.3,0.27
		c-0.16,0.04-0.31,0.12-0.45,0.22c-0.17,0.12-0.19,0.23-0.1,0.41c0.09,0.16,0.23,0.3,0.3,0.46c0.08,0.19,0.11,0.41,0.17,0.61
		c-0.02,0-0.04,0-0.06,0c-0.14-0.02-0.3-0.01-0.41-0.08c-0.46-0.26-0.87-0.6-1.17-1.05c-0.16-0.23-0.22-0.49-0.14-0.76
		c0.06-0.2,0.13-0.39,0.22-0.58c0.17-0.36,0.37-0.71,0.54-1.07c0.1-0.21,0.06-0.4-0.1-0.56c-0.07-0.07-0.16-0.13-0.24-0.2
		c-0.09-0.07-0.19-0.14-0.28-0.22c-0.37-0.32-0.45-0.78-0.19-1.17c0.46-0.68,0.93-1.36,1.41-2.03c0.38-0.53,0.84-0.98,1.44-1.27
		c0.98-0.47,1.87-1.1,2.78-1.69c0.07-0.04,0.12-0.11,0.18-0.17c-0.01-0.02-0.01-0.04-0.02-0.06c-0.08-0.01-0.17-0.04-0.25-0.03
		c-1,0.2-1.99,0.41-2.98,0.6c-0.21,0.04-0.35,0.15-0.48,0.31c-0.71,0.93-1.43,1.85-2.14,2.77c-0.17,0.22-0.35,0.42-0.6,0.56
		c-0.62,0.33-1.24,0.67-1.87,0.99c-0.39,0.2-0.8,0.36-1.25,0.4c-0.66,0.06-1.3,0.2-1.93,0.41c-1.06,0.35-2.05,0.87-3.03,1.39
		c-0.98,0.52-1.95,1.04-2.97,1.45c-0.77,0.31-1.56,0.43-2.38,0.34c-0.77-0.08-1.53-0.19-2.3-0.31c-1.44-0.23-2.8-0.71-4.08-1.42
		c-0.24-0.13-0.4-0.31-0.48-0.57C48.53,75.25,48.53,75.17,48.53,75.1z M93.99,56.02c-0.02,0.01-0.03,0.02-0.05,0.03
		c-0.12-0.19-0.27-0.38-0.35-0.58c-0.13-0.31-0.23-0.4-0.56-0.35c-0.27,0.04-0.36,0.16-0.31,0.43c0.02,0.14,0.06,0.28,0.05,0.42
		c-0.03,0.52,0.19,0.92,0.58,1.25c0.22,0.19,0.29,0.2,0.54,0.06c0.55-0.3,1-0.71,1.4-1.19c0.29-0.35,0.53-0.71,0.66-1.14
		c0.16-0.54,0.12-1.07-0.04-1.6c-0.08-0.27-0.1-0.55-0.04-0.83c0.09-0.4-0.03-0.73-0.34-1c-0.14-0.13-0.3-0.24-0.46-0.34
		c-0.32-0.19-0.47-0.43-0.39-0.83c0.18-0.97,0.36-1.95,0.66-2.89c0.15-0.46,0.31-0.92,0.45-1.39c0.13-0.45-0.02-0.72-0.48-0.8
		c-0.34-0.06-0.69-0.07-1.03-0.04c-0.5,0.04-0.84-0.1-1.09-0.54c-0.16-0.28-0.38-0.42-0.7-0.4c-0.61,0.04-1.22,0.07-1.83,0.13
		c-0.44,0.04-0.88,0.09-1.32,0.17c-0.79,0.16-1.38,0.57-1.7,1.34c-0.03,0.07-0.09,0.14-0.16,0.19c-0.05,0.04-0.16,0.11-0.18,0.09
		c-0.07-0.06-0.11-0.15-0.16-0.24c-0.01-0.01,0-0.04,0-0.06c0.02-0.2-0.09-0.32-0.26-0.39c-0.25-0.11-0.5-0.16-0.77-0.17
		c-0.37-0.01-0.73-0.03-1.01-0.34c-0.03-0.03-0.1-0.04-0.15-0.02c-0.07,0.02-0.14,0.05-0.2,0.09c-0.29,0.22-0.58,0.44-0.86,0.67
		c-0.16,0.13-0.31,0.21-0.51,0.13c-0.27-0.1-0.51-0.25-0.7-0.48c-0.32-0.37-0.44-0.82-0.47-1.3c-0.03-0.53-0.27-0.89-0.77-1.07
		c-0.12-0.04-0.23-0.09-0.34-0.14c-1.01-0.46-1.74-1.15-2.01-2.27c-0.04-0.16-0.16-0.29-0.24-0.44c-0.02,0-0.04,0-0.06,0
		c-0.08,0.19-0.23,0.38-0.24,0.57c-0.04,0.59,0.03,1.17,0.32,1.69c0.24,0.45,0.53,0.87,0.81,1.3c0.12,0.18,0.16,0.37,0.18,0.58
		c-0.28-0.03-0.43-0.11-0.57-0.32c-0.22-0.33-0.43-0.66-0.65-0.99c-0.14-0.22-0.29-0.43-0.45-0.64c-0.03-0.04-0.1-0.06-0.16-0.09
		c-0.03,0.06-0.08,0.12-0.09,0.18c-0.03,0.23-0.04,0.47-0.06,0.71c-0.04,0.44,0.06,0.82,0.44,1.09c0.03,0.02,0.06,0.05,0.09,0.08
		c1.11,1.03,2.32,1.92,3.58,2.77c0.35,0.24,0.73,0.35,1.15,0.35c1.12,0,2.25,0,3.37,0c0.26,0,0.51,0.04,0.75,0.16
		c0.39,0.2,0.57,0.56,0.51,0.99c-0.07,0.45-0.32,0.8-0.68,1.07c-0.25,0.19-0.52,0.34-0.78,0.51c-0.19,0.12-0.3,0.28-0.33,0.51
		c-0.04,0.29-0.09,0.57-0.13,0.86c-0.01,0.04-0.01,0.09-0.01,0.13c0,0.15,0.06,0.2,0.21,0.21c0.05,0,0.11,0,0.16-0.01
		c1.13-0.18,2.26-0.35,3.39-0.53c0.3-0.05,0.55-0.16,0.75-0.39c0.63-0.72,0.91-1.55,0.87-2.5c-0.01-0.33-0.14-0.59-0.4-0.79
		c-0.73-0.56-1.46-1.11-2.19-1.67c-0.13-0.1-0.22-0.25-0.36-0.4c0.29-0.08,0.52-0.13,0.74,0.04c0.78,0.59,1.56,1.19,2.35,1.78
		c0.21,0.16,0.33,0.36,0.38,0.61c0.14,0.68,0.08,1.36-0.18,2c-0.12,0.3-0.27,0.58-0.43,0.86c-0.27,0.47-0.17,0.96,0.28,1.25
		c0.36,0.24,0.74,0.46,1.11,0.68c0.75,0.44,1.28,1.05,1.51,1.91C94.11,55.16,94.14,55.59,93.99,56.02z M51.79,68.8
		c-0.26-0.12-0.35-0.11-0.51,0.05c-0.16,0.16-0.32,0.31-0.47,0.47c-0.39,0.39-0.67,0.85-0.74,1.41c-0.02,0.17-0.06,0.34-0.1,0.51
		c-0.24,1.12-0.48,2.24-0.71,3.37c-0.13,0.64-0.01,0.86,0.61,1.08c0.48,0.17,0.97,0.32,1.47,0.44c1.23,0.3,2.48,0.57,3.71,0.86
		c0.76,0.18,1.51,0.13,2.21-0.2c0.89-0.42,1.76-0.88,2.64-1.34c0.88-0.46,1.75-0.95,2.68-1.31c0.82-0.31,1.65-0.57,2.52-0.68
		c0.87-0.11,1.69-0.37,2.45-0.82c1.21-0.71,2.12-1.72,2.94-2.83c0.04-0.06,0.04-0.15,0.06-0.23c-0.08,0-0.18-0.03-0.25,0
		c-0.48,0.16-0.96,0.32-1.44,0.51c-0.99,0.39-1.97,0.82-3.02,1.05c-0.43,0.1-0.82,0.29-1.12,0.62c-0.13,0.15-0.29,0.24-0.47,0.31
		c-0.34,0.14-0.68,0.27-1,0.44c-1.42,0.78-2.83,1.58-4.25,2.36c-0.73,0.4-1.51,0.66-2.37,0.66c-0.57,0-1.1-0.14-1.64-0.3
		c-1.51-0.46-2.87-1.18-4-2.29c-0.41-0.4-0.42-0.53-0.08-0.99c0.13-0.17,0.26-0.35,0.38-0.53c0.11-0.18,0.07-0.28-0.14-0.34
		c-0.08-0.02-0.16-0.03-0.24-0.06c-0.21-0.05-0.26-0.17-0.15-0.35c0.07-0.12,0.17-0.22,0.22-0.35c0.04-0.1,0.08-0.22,0.06-0.32
		c-0.08-0.49,0-0.65,0.45-0.89C51.59,69.03,51.68,68.91,51.79,68.8z M54.44,68.56c0.01,0.18,0.04,0.34,0.02,0.49
		c-0.03,0.18-0.09,0.35-0.16,0.52c-0.38,1.02-1.07,1.71-2.13,1.99c-0.22,0.06-0.38,0.17-0.51,0.35c-0.06,0.09-0.13,0.17-0.19,0.26
		c-0.14,0.2-0.13,0.32,0.06,0.48c0.4,0.33,0.8,0.67,1.22,0.98c0.64,0.48,1.34,0.82,2.14,0.94c0.3,0.05,0.63,0.09,0.9,0.22
		c0.59,0.3,1.17,0.3,1.77,0.05c0.28-0.12,0.56-0.24,0.83-0.38c0.84-0.42,1.68-0.85,2.52-1.27c0.06-0.03,0.12-0.08,0.18-0.12
		c-0.01-0.01-0.01-0.03-0.02-0.04c-0.05,0-0.09,0-0.14,0.01c-0.2,0.04-0.41,0.08-0.61,0.12c-1.34,0.26-2.69,0.52-4.03,0.76
		c-0.17,0.03-0.37-0.02-0.54-0.07c-0.16-0.05-0.21-0.17-0.17-0.33c0.04-0.15,0.08-0.3,0.15-0.43c0.71-1.27,1.43-2.54,2.14-3.82
		c0.29-0.52,0.59-1.04,0.88-1.56c0.15-0.26,0.1-0.39-0.18-0.5c-0.23-0.09-0.47-0.18-0.7-0.27c-0.65-0.24-1.25-0.21-1.83,0.23
		c-0.22,0.17-0.52,0.26-0.79,0.35c-0.24,0.08-0.31,0.02-0.35-0.23c-0.03-0.18-0.05-0.36-0.07-0.54c-0.02-0.02-0.05-0.03-0.07-0.05
		c-0.03,0.06-0.06,0.11-0.09,0.17c-0.06,0.1-0.11,0.2-0.17,0.29c-0.57,1-1.15,2-1.72,3c-0.07,0.12-0.08,0.23,0.03,0.36
		c0.06-0.09,0.13-0.16,0.18-0.24c0.31-0.47,0.61-0.94,0.91-1.42C54.02,68.69,54.2,68.63,54.44,68.56z M68.97,54.54
		c-0.17,0.08-0.32,0.11-0.42,0.2c-0.69,0.57-1.37,1.15-2.06,1.73c-0.13,0.11-0.2,0.26-0.21,0.43c-0.02,0.23-0.02,0.45-0.03,0.68
		c-0.02,0.5,0,1.01-0.07,1.5c-0.14,1.11-0.73,1.92-1.76,2.36c-0.61,0.26-1.1,0.65-1.49,1.17c-0.33,0.44-0.62,0.9-0.96,1.33
		c-0.12,0.16-0.06,0.41,0.12,0.48c0.15,0.06,0.3,0.12,0.45,0.2c0.36,0.19,0.58,0.14,0.79-0.22c0.13-0.23,0.31-0.4,0.54-0.53
		c0.54-0.3,1.09-0.6,1.63-0.9c0.68-0.38,1.35-0.75,1.95-1.26c0.62-0.52,1.1-1.14,1.25-1.96c0.17-0.97,0.31-1.94,0.46-2.92
		c0.01-0.04-0.01-0.09-0.03-0.14c-0.02-0.07-0.08-0.15-0.08-0.22c-0.01-0.44,0-0.88-0.01-1.32C69.05,54.98,69,54.79,68.97,54.54z
		 M89.1,44.11c0.01,0.02,0.02,0.03,0.03,0.05c0.14-0.02,0.29-0.03,0.43-0.05c0.51-0.1,1.02-0.22,1.54-0.29
		c0.59-0.08,1.19-0.05,1.78,0.09c0.18,0.04,0.32,0.12,0.4,0.31c0.14,0.31,0.39,0.48,0.73,0.5c0.28,0.01,0.57-0.01,0.85,0
		c0.41,0.02,0.8,0.12,1.08,0.43c0.33,0.37,0.33,0.8,0.21,1.25c-0.18,0.69-0.36,1.37-0.54,2.06c-0.13,0.5-0.29,0.99-0.41,1.5
		c-0.14,0.63,0.17,1.13,0.77,1.3c0.15,0.04,0.29,0.03,0.41-0.08c0.39-0.32,0.77-0.64,1.17-0.96c0.36-0.29,0.42-0.52,0.25-0.96
		c-0.07-0.18-0.14-0.36-0.19-0.54c-0.15-0.51-0.09-1.05-0.14-1.57c-0.05-0.49-0.08-0.98-0.16-1.47C97.21,45,97,44.36,96.57,43.8
		c-0.53-0.68-1.16-1.27-1.75-1.88c-0.11-0.12-0.26-0.15-0.42-0.11c-0.37,0.1-0.74,0.21-1.11,0.31c-0.08,0.02-0.17,0.07-0.22-0.05
		c-0.01-0.02-0.08-0.03-0.12-0.03c-0.33,0.02-0.66,0.05-0.99,0.08c-0.32,0.03-0.46,0.2-0.42,0.53c0.01,0.06,0,0.12,0,0.19
		c-0.22-0.04-0.41-0.11-0.56-0.26c-0.3-0.3-0.45-0.29-0.74,0.01c-0.01,0.01-0.02,0.02-0.03,0.03c-0.3,0.38-0.61,0.75-0.91,1.13
		C89.22,43.86,89.17,43.99,89.1,44.11z M80.38,55.21c0,0.03,0.01,0.06,0.01,0.08c0.15,0.02,0.3,0.06,0.45,0.06
		c0.87-0.01,1.65,0.25,2.29,0.83c0.37,0.34,0.8,0.55,1.26,0.73c0.57,0.22,1.15,0.36,1.76,0.24c0.32-0.06,0.64-0.02,0.95,0.05
		c0.21,0.04,0.33,0.22,0.27,0.43c-0.04,0.16-0.09,0.34-0.19,0.47c-0.31,0.42-0.65,0.82-0.98,1.22c-0.17,0.21-0.15,0.32,0.09,0.43
		c0.03,0.01,0.06,0.03,0.1,0.04c0.53,0.18,1.06,0.37,1.6,0.53c0.72,0.22,0.56,0.29,1.32-0.09c0.9-0.45,1.79-0.92,2.68-1.38
		c0.05-0.03,0.09-0.06,0.17-0.11c-0.13-0.03-0.22-0.06-0.31-0.08c-0.23-0.04-0.44-0.14-0.61-0.3c-0.26-0.23-0.53-0.45-0.8-0.67
		c-0.52-0.42-1.1-0.71-1.77-0.85c-0.35-0.07-0.69-0.2-1.02-0.35c-0.86-0.41-1.52-1.05-2.06-1.82c-0.21-0.3-0.47-0.43-0.83-0.39
		c-0.45,0.06-0.91,0.1-1.36,0.16c-0.96,0.11-1.88,0.39-2.8,0.65C80.51,55.1,80.45,55.17,80.38,55.21z M76.65,72.42
		c0.36-0.15,0.68-0.37,1.08-0.42c0.68-0.07,1.36-0.19,2.03-0.28c0.65-0.09,1.3-0.17,1.89-0.49c0.07-0.04,0.12-0.1,0.18-0.16
		c-0.07-0.04-0.15-0.08-0.22-0.12c-0.01-0.01-0.03,0-0.04-0.01c-0.2-0.02-0.4-0.04-0.6-0.06c-0.26-0.02-0.5-0.1-0.71-0.26
		c-0.03-0.03-0.07-0.1-0.06-0.12c0.12-0.17,0.23-0.35,0.37-0.5c0.09-0.09,0.22-0.14,0.33-0.22c0.21-0.14,0.23-0.24,0.1-0.45
		c-0.03-0.04-0.06-0.08-0.09-0.12c-0.13-0.19-0.26-0.37-0.38-0.56c-0.16-0.27-0.4-0.4-0.71-0.32c-0.45,0.11-0.89,0.25-1.34,0.38
		c-0.83,0.24-1.65,0.51-2.53,0.47c-0.1,0-0.22,0.04-0.32,0.1c-0.81,0.49-1.61,1.02-2.44,1.48c-0.8,0.44-1.43,1.03-1.96,1.76
		c-0.34,0.48-0.68,0.95-1.03,1.43c-0.08,0.11-0.1,0.38,0.01,0.46c0.06,0.04,0.19-0.01,0.28-0.03c0.05-0.01,0.1-0.03,0.13-0.06
		c0.34-0.3,0.71-0.57,1.01-0.91c0.48-0.53,0.91-1.11,1.37-1.67c0.29-0.34,0.57-0.7,0.89-1.01c0.41-0.4,0.91-0.59,1.5-0.51
		c0.2,0.03,0.41,0.03,0.62,0.03c0.32,0,0.62,0.06,0.92,0.21c-0.08,0.23-0.14,0.46-0.31,0.64c-0.4,0.4-0.8,0.79-1.2,1.19
		c-0.24,0.24-0.5,0.47-0.73,0.71c-0.19,0.2-0.16,0.36,0.1,0.47c0.21,0.09,0.42,0.17,0.63,0.26c0.08,0.03,0.16,0.06,0.23,0.09
		c0.22,0.11,0.29,0.23,0.23,0.48c-0.03,0.12-0.07,0.23-0.11,0.35c-0.16,0.52-0.32,1.05-0.48,1.57c-0.04,0.13,0,0.23,0.13,0.32
		c0.17-0.2,0.34-0.4,0.49-0.61c0.04-0.05,0.04-0.14,0.03-0.21c-0.08-0.31-0.06-0.6,0.04-0.9c0.09-0.25,0.18-0.5,0.26-0.75
		c0.13-0.41,0.4-0.67,0.81-0.78c0.19-0.05,0.39-0.07,0.58-0.12c0.06-0.02,0.1-0.09,0.15-0.14c-0.05-0.03-0.1-0.09-0.16-0.1
		C77.26,72.83,76.98,72.58,76.65,72.42z M86.87,63.53c-0.01-0.02-0.03-0.04-0.04-0.05c0.05-0.1,0.08-0.23,0.16-0.29
		c0.3-0.23,0.6-0.47,0.94-0.63c0.62-0.29,1.28-0.52,1.91-0.78c0.1-0.04,0.2-0.11,0.33-0.19c-0.11-0.07-0.16-0.12-0.23-0.15
		c-0.19-0.06-0.38-0.1-0.57-0.15c-0.44-0.1-0.8,0.03-1.1,0.37c-0.11,0.13-0.27,0.23-0.43,0.3c-0.52,0.23-1.06,0.44-1.59,0.65
		c-0.24,0.1-0.47,0.19-0.74,0.29c0.07,0.03,0.12,0.04,0.16,0.06c0.36,0.13,0.45,0.25,0.45,0.63c0,0.29,0.01,0.58,0,0.87
		c-0.01,0.3-0.03,0.61-0.05,0.91c-0.02,0.29-0.05,0.59-0.06,0.88c0,0.3,0.14,0.43,0.44,0.39c0.6-0.07,1.16-0.26,1.71-0.49
		c0.77-0.33,1.46-0.78,2.13-1.28c0.22-0.16,0.44-0.28,0.74-0.22c0.53,0.1,0.66,0.03,0.94-0.44c0,0,0-0.01,0.01-0.01
		c0.42-0.68,0.85-1.35,1.27-2.03c0.02-0.04,0.04-0.07,0.07-0.13c-0.07,0-0.12,0-0.17,0c-0.44,0.02-0.89,0.06-1.33,0.05
		c-0.98-0.02-1.92,0.18-2.82,0.57c-0.58,0.25-1.17,0.5-1.76,0.74C87.13,63.47,87,63.49,86.87,63.53z M81.87,37.94
		c0,0.02,0.01,0.08,0.02,0.13c0.15,0.57,0.31,1.14,0.45,1.71c0.16,0.66,0.57,1.07,1.24,1.2c1.25,0.24,2.51,0.48,3.76,0.7
		c0.2,0.04,0.4,0.11,0.63,0.01c0.36-0.17,0.74-0.29,1.1-0.45c0.27-0.11,0.53-0.24,0.78-0.38c0.3-0.17,0.32-0.37,0.07-0.6
		c-0.16-0.14-0.32-0.28-0.5-0.38c-0.72-0.4-1.43-0.79-2.16-1.15c-0.33-0.16-0.7-0.29-1.06-0.35c-0.56-0.09-1.13-0.1-1.69-0.16
		c-0.73-0.07-1.45-0.2-2.13-0.5c-0.07-0.03-0.14-0.06-0.21-0.07C81.97,37.63,81.87,37.72,81.87,37.94z M78.7,62.78
		c0-0.01,0-0.03,0.01-0.04c-0.15-0.08-0.3-0.15-0.45-0.23c-1.32-0.68-2.2-1.72-2.55-3.17c-0.02-0.1-0.04-0.2-0.03-0.31
		c0.02-0.25,0.19-0.38,0.4-0.46c0.62-0.25,1.24-0.5,1.86-0.76c0.09-0.04,0.18-0.09,0.24-0.16c0.2-0.26,0.32-0.56,0.32-0.89
		c0-0.18-0.11-0.26-0.28-0.2c-0.38,0.12-0.75,0.24-1.12,0.37c-0.83,0.27-1.5,0.76-2.02,1.45c-0.26,0.34-0.51,0.7-0.77,1.05
		c-0.08,0.11-0.19,0.2-0.29,0.3c-0.02-0.01-0.04-0.01-0.06-0.02c-0.05-0.2-0.11-0.41-0.17-0.64c-0.18,0.1-0.38,0.2-0.55,0.34
		c-0.08,0.06-0.13,0.2-0.13,0.3c0,0.26,0.04,0.52,0.07,0.78c0.03,0.3,0.12,0.6,0.1,0.89c-0.04,0.57,0.16,1,0.59,1.36
		c0.12,0.1,0.22,0.24,0.3,0.37c0.15,0.27,0.37,0.41,0.67,0.41c0.14,0,0.28-0.02,0.41-0.04c0.94-0.18,1.87-0.37,2.81-0.56
		C78.26,62.87,78.48,62.82,78.7,62.78z M59.99,57c-0.02-0.02-0.03-0.04-0.05-0.06c-0.07,0.04-0.14,0.08-0.19,0.13
		c-0.46,0.42-0.92,0.84-1.37,1.26c-0.72,0.67-1.44,1.33-2.16,2c-0.17,0.15-0.19,0.32-0.08,0.52c0.36,0.62,0.72,1.24,1.08,1.85
		c0.2,0.33,0.17,0.56-0.12,0.81c-0.37,0.32-0.75,0.64-1.12,0.97c-0.3,0.26-0.59,0.53-0.88,0.8c0.01,0.01,0.02,0.02,0.02,0.02
		c0.06,0.01,0.12,0.02,0.18,0.02c0.47,0.05,0.9,0.01,1.24-0.41c0.45-0.55,0.94-1.07,1.41-1.59c0.55-0.61,1.1-1.22,1.65-1.83
		c0.21-0.23,0.25-0.48,0.11-0.76c-0.06-0.11-0.12-0.22-0.18-0.34c-0.22-0.4-0.38-0.82-0.42-1.28c-0.04-0.61,0.17-1.14,0.55-1.61
		C59.78,57.34,59.88,57.17,59.99,57z M66.58,65.56c0.01,0.02,0.01,0.03,0.02,0.05c0.48,0.16,0.93,0.39,1.46,0.33
		c0.08-0.01,0.15-0.06,0.22-0.11c0.33-0.24,0.63-0.52,0.98-0.71c0.62-0.34,1.26-0.63,1.89-0.94c0.37-0.18,0.69-0.41,0.94-0.74
		c0.32-0.43,0.46-0.92,0.57-1.43c0.05-0.24,0.15-0.47,0.09-0.73c-0.04-0.21-0.08-0.43-0.13-0.64c-0.15-0.66-0.23-1.32,0.05-1.97
		c0.05-0.12,0.03-0.25-0.08-0.38c-0.06,0.06-0.12,0.11-0.16,0.17c-0.17,0.25-0.34,0.51-0.51,0.76c-0.58,0.89-1.09,1.81-1.38,2.85
		c-0.12,0.42-0.32,0.81-0.67,1.1c-0.29,0.24-0.59,0.46-0.9,0.68c-0.6,0.42-1.21,0.82-1.8,1.24C66.96,65.23,66.78,65.4,66.58,65.56z
		 M81.8,63.22c-0.2-0.18-0.37-0.35-0.55-0.51c-0.9-0.81-1.69-1.72-2.21-2.82c-0.21-0.44-0.36-0.92-0.52-1.38
		c-0.09-0.25-0.23-0.33-0.47-0.23c-0.51,0.22-1.02,0.45-1.52,0.68c-0.26,0.12-0.36,0.32-0.29,0.6c0.07,0.26,0.15,0.51,0.26,0.75
		c0.37,0.79,1,1.33,1.77,1.72c0.38,0.2,0.76,0.39,1.14,0.59c0.47,0.25,0.94,0.53,1.42,0.76C81.15,63.54,81.46,63.45,81.8,63.22z
		 M85.6,64.31c0,0-0.01,0-0.01,0c-0.01-0.1-0.02-0.2-0.03-0.29c-0.03-0.4-0.21-0.53-0.6-0.43c-0.03,0.01-0.07,0.02-0.1,0.03
		c-0.25,0.04-0.49,0.1-0.74,0.13c-0.39,0.04-0.74,0.16-1.04,0.41c-0.24,0.2-0.39,0.45-0.34,0.79c0.06,0.4,0.13,0.81,0.19,1.21
		c0.11,0.8,0.15,1.59-0.08,2.37c-0.02,0.06-0.02,0.13-0.01,0.19c0.02,0.14,0.1,0.19,0.23,0.14c0.1-0.04,0.2-0.09,0.28-0.15
		c0.34-0.25,0.68-0.5,1.02-0.76c0.3-0.22,0.49-0.5,0.46-0.89c-0.01-0.11-0.04-0.22-0.06-0.33c-0.06-0.24,0.08-0.44,0.32-0.46
		c0.18-0.01,0.29-0.11,0.33-0.3c0.02-0.16,0.03-0.31,0.05-0.47C85.5,65.1,85.55,64.71,85.6,64.31z M86.59,57.82
		c-0.17-0.08-0.31-0.12-0.48-0.08c-0.38,0.09-0.77,0.07-1.14-0.05c-0.43-0.14-0.86-0.31-1.29-0.48c-0.15-0.06-0.3-0.16-0.41-0.28
		c-0.31-0.31-0.64-0.58-1.05-0.75c-0.72-0.3-1.47-0.34-2.23-0.33c-0.08,0-0.15,0.05-0.23,0.08c0.14,0.19,0.19,0.22,0.4,0.28
		c0.32,0.1,0.65,0.2,0.97,0.31c0.19,0.07,0.33,0.22,0.35,0.41c0.02,0.17-0.15,0.28-0.29,0.36c-0.04,0.02-0.08,0.05-0.13,0.08
		c0.58,0.41,1.22,0.6,1.9,0.65c0.4,0.03,0.8,0.02,1.13,0.3c0.07,0.06,0.09,0.09,0.05,0.18c-0.11,0.25-0.25,0.48-0.44,0.68
		c-0.21,0.21-0.41,0.43-0.61,0.64c-0.05,0.06-0.11,0.11-0.18,0.19c0.18,0.01,0.32,0.03,0.46,0.03c0.4,0.02,0.8,0.04,1.2,0.04
		c0.18,0,0.34-0.07,0.46-0.22c0.46-0.57,0.92-1.13,1.38-1.7C86.47,58.07,86.52,57.94,86.59,57.82z M58.62,69.19
		c0.31-0.06,0.6-0.1,0.84-0.29c0.2-0.16,0.34-0.11,0.43,0.11c0.32,0.76,0.64,1.52,0.96,2.28c0.1,0.23,0.04,0.35-0.2,0.43
		c-0.29,0.1-0.59,0.19-0.89,0.28c-0.18,0.06-0.3,0.17-0.37,0.35c-0.08,0.23,0,0.33,0.24,0.31c0.02,0,0.05-0.01,0.07-0.01
		c0.2-0.04,0.4-0.08,0.59-0.12c0.65-0.14,1.29-0.27,1.94-0.42c0.34-0.08,0.4-0.21,0.26-0.53c-0.05-0.11-0.1-0.21-0.14-0.32
		c-0.3-0.76-0.14-1.41,0.48-1.94c0.16-0.14,0.35-0.26,0.52-0.39c0.05-0.04,0.1-0.07,0.15-0.11c-0.01-0.01-0.01-0.03-0.02-0.04
		c-0.14,0.04-0.28,0.06-0.42,0.12c-0.39,0.15-0.78,0.32-1.18,0.48c-0.47,0.19-0.71,0.13-1.01-0.28c-0.35-0.47-0.69-0.95-1.04-1.42
		c-0.16-0.23-0.27-0.22-0.41,0.02c-0.12,0.22-0.24,0.44-0.36,0.66C58.93,68.62,58.78,68.91,58.62,69.19z M76.44,66.15
		c0-0.01,0-0.02,0-0.03c0.16,0,0.32,0.01,0.47,0c0.1-0.01,0.19-0.07,0.29-0.1c-0.06-0.08-0.1-0.18-0.18-0.23
		c-0.69-0.48-1.38-0.95-2.07-1.43c-0.52-0.36-0.83-0.34-1.32,0.06c-0.02,0.02-0.04,0.04-0.07,0.06c-0.57,0.49-1.14,0.99-1.71,1.48
		c-0.19,0.17-0.22,0.28-0.06,0.48c0.23,0.29,0.41,0.6,0.58,0.92c0.1,0.2,0.18,0.21,0.37,0.09c0.22-0.15,0.43-0.31,0.65-0.46
		c0.36-0.24,0.71-0.5,1.08-0.71c0.32-0.18,0.68-0.25,1.06-0.2C75.83,66.1,76.14,66.12,76.44,66.15z M96.52,54.34
		c-0.05,0.25-0.09,0.56-0.17,0.86c-0.18,0.63-0.55,1.15-0.98,1.64c-0.34,0.39-0.32,0.81-0.14,1.24c0.04,0.1,0.16,0.2,0.26,0.24
		c0.17,0.06,0.35,0.1,0.53,0.1c0.09,0,0.22-0.05,0.28-0.12c0.3-0.36,0.6-0.72,0.88-1.09c0.37-0.49,0.66-1.02,0.76-1.63
		c0.05-0.29,0.04-0.59,0.09-0.88c0.07-0.39-0.03-0.72-0.33-0.97c-0.21-0.17-0.42-0.34-0.65-0.49c-0.15-0.1-0.34-0.15-0.51-0.22
		c-0.09-0.04-0.13,0.02-0.13,0.1c0,0.17,0,0.33,0.02,0.5C96.44,53.84,96.48,54.06,96.52,54.34z M93.89,58.68
		c-0.35-0.02-0.68,0.1-1,0.28c-0.54,0.3-1.08,0.6-1.62,0.89c-0.47,0.25-0.96,0.49-1.43,0.74c-0.07,0.04-0.11,0.12-0.16,0.19
		c0.07,0.04,0.14,0.09,0.21,0.11c0.24,0.06,0.49,0.12,0.73,0.16c0.2,0.04,0.4,0.11,0.59,0.09c0.76-0.08,1.52-0.17,2.27-0.29
		c0.43-0.07,0.86-0.17,1.28-0.3c0.27-0.08,0.5-0.28,0.52-0.59c0.01-0.25-0.05-0.51-0.12-0.75c-0.03-0.1-0.13-0.22-0.23-0.27
		C94.61,58.77,94.27,58.67,93.89,58.68z M92.51,69.93c0,0,0-0.01,0-0.01c0.13,0,0.27,0,0.4,0c0.21-0.01,0.29-0.09,0.23-0.29
		c-0.08-0.26-0.19-0.5-0.28-0.76c-0.06-0.18-0.14-0.36-0.16-0.55c-0.04-0.36-0.11-0.41-0.42-0.23c-0.4,0.24-0.8,0.49-1.21,0.71
		c-0.27,0.14-0.56,0.21-0.87,0.16c-0.25-0.04-0.46-0.16-0.66-0.31c-0.1-0.08-0.19-0.11-0.28,0c-0.31,0.39-0.64,0.76-0.95,1.16
		c-0.32,0.42-0.55,0.89-0.65,1.41c-0.05,0.27,0.03,0.37,0.29,0.38c0.35,0.02,0.71,0.05,1.06,0.07c0.13,0.01,0.27,0.06,0.36-0.06
		c0.09-0.12,0.01-0.25-0.03-0.36c-0.17-0.41-0.34-0.81-0.5-1.22c-0.1-0.27-0.01-0.37,0.27-0.36c0.38,0.03,0.76,0.07,1.13,0.09
		C91,69.83,91.75,69.88,92.51,69.93z M86.63,69.6c0.01,0.01,0.02,0.02,0.04,0.04c0.08-0.04,0.17-0.06,0.24-0.11
		c0.43-0.31,0.85-0.63,1.27-0.94c0.29-0.22,0.59-0.38,0.94-0.48c0.9-0.26,1.8-0.55,2.71-0.79c0.46-0.12,0.8-0.38,1.1-0.73
		c0.03-0.03,0.05-0.09,0.04-0.13c-0.04-0.15-0.11-0.28-0.28-0.31c-0.18-0.04-0.36-0.07-0.54-0.09c-0.27-0.02-0.5,0.05-0.72,0.24
		c-0.43,0.37-0.95,0.52-1.51,0.52c-0.65,0-1.28,0.1-1.92,0.2c-0.24,0.04-0.38,0.16-0.47,0.37c-0.28,0.67-0.57,1.34-0.85,2.01
		C86.65,69.46,86.65,69.54,86.63,69.6z M85.46,60.75c-0.07-0.01-0.11-0.02-0.15-0.02c-0.31-0.01-0.62-0.01-0.93-0.03
		c-0.45-0.02-0.89-0.04-1.34-0.08c-0.29-0.02-0.53,0.06-0.7,0.29c-0.12,0.15-0.21,0.32-0.28,0.5c-0.14,0.34-0.06,0.64,0.24,0.84
		c0.22,0.15,0.47,0.26,0.71,0.39c0.55,0.28,1.08,0.18,1.59-0.1c0.18-0.1,0.36-0.23,0.43-0.43C85.17,61.66,85.31,61.22,85.46,60.75z
		 M75.47,64.26c0.11,0.09,0.18,0.16,0.25,0.21c0.56,0.35,1.11,0.7,1.67,1.03c0.19,0.11,0.4,0.2,0.61,0.25
		c0.54,0.14,0.99-0.1,1.2-0.6c0.14-0.32,0.16-0.66,0.11-1c-0.07-0.4-0.26-0.57-0.65-0.6c-0.13-0.01-0.26,0.01-0.38,0.03
		c-0.84,0.18-1.68,0.37-2.52,0.56C75.68,64.16,75.6,64.2,75.47,64.26z M81.38,60.13c0.35-0.1,0.73-0.13,1.03-0.37
		c0.01-0.01,0.02-0.01,0.02-0.02c0.23-0.29,0.46-0.58,0.67-0.88c0.1-0.14,0.02-0.27-0.15-0.28c-0.43-0.02-0.84-0.11-1.23-0.3
		c-0.42-0.2-0.82-0.43-1.22-0.66c-0.24-0.13-0.39-0.07-0.45,0.2c-0.11,0.5-0.21,0.99-0.31,1.49c-0.04,0.22,0.06,0.38,0.27,0.45
		c0.14,0.04,0.27,0.08,0.41,0.12C80.74,59.98,81.06,60.06,81.38,60.13z M87.96,53.5c0,0.02,0.01,0.04,0.01,0.06
		c0.23,0.05,0.46,0.15,0.69,0.15c0.64,0.01,1.28-0.01,1.92-0.04c0.53-0.03,1.04-0.03,1.52,0.25c0.23,0.13,0.47,0.22,0.71,0.33
		c0.16,0.07,0.27,0.04,0.38-0.1c0.11-0.14,0.11-0.16-0.05-0.26c-0.07-0.04-0.13-0.09-0.2-0.13c-0.67-0.42-1.35-0.84-2.01-1.28
		c-0.29-0.19-0.55-0.22-0.86-0.07c-0.32,0.16-0.64,0.3-0.96,0.46C88.73,53.09,88.35,53.3,87.96,53.5z M79.88,39.13
		c-0.14,0.16-0.27,0.27-0.37,0.4c-0.09,0.12-0.18,0.26-0.2,0.4c-0.03,0.21-0.02,0.42-0.01,0.63c0.03,0.43,0.2,0.8,0.57,1.04
		c0.61,0.41,1.24,0.8,1.87,1.2c0.08,0.05,0.2,0.06,0.3,0.06c0.05,0,0.11-0.04,0.14-0.09c0.1-0.14,0.09-0.33-0.01-0.47
		c-0.5-0.69-1.02-1.37-1.69-1.91c-0.27-0.22-0.43-0.51-0.47-0.86C79.98,39.41,79.92,39.28,79.88,39.13z M75.86,66.77
		c-0.5-0.03-0.92,0.06-1.29,0.29c-0.39,0.24-0.76,0.52-1.14,0.79c-0.02,0.02-0.03,0.06-0.04,0.1c0.04,0.01,0.08,0.03,0.11,0.03
		c0.45-0.07,0.9-0.17,1.35-0.23c0.39-0.05,0.75-0.02,1.08,0.26c0.33,0.28,0.72,0.28,1.07,0.03c0.41-0.29,0.79-0.63,1.18-0.96
		c0.02-0.02,0.02-0.09,0.01-0.12c-0.07-0.14-0.22-0.12-0.34-0.13C77.17,66.8,76.48,66.78,75.86,66.77z M70.36,77.17
		c0.26-0.06,0.49-0.1,0.71-0.16c0.4-0.11,0.8-0.22,1.19-0.34c0.13-0.04,0.23-0.13,0.28-0.27c0.21-0.57,0.43-1.13,0.63-1.7
		c0.08-0.22,0.01-0.37-0.2-0.5c-0.13-0.08-0.28-0.15-0.42-0.22c-0.11-0.06-0.2-0.03-0.26,0.08c-0.06,0.11-0.11,0.22-0.18,0.32
		c-0.55,0.87-1.1,1.74-1.65,2.61C70.43,77.04,70.41,77.09,70.36,77.17z M65.37,65.93c-0.02-0.02-0.02-0.03-0.03-0.03
		c-0.54-0.16-1.09-0.32-1.63-0.47c-0.14-0.04-0.26,0.02-0.33,0.15c-0.12,0.22-0.26,0.43-0.35,0.67c-0.22,0.54-0.01,1.03,0.53,1.25
		c0.29,0.12,0.59,0.14,0.9,0.1c0.31-0.04,0.48-0.18,0.55-0.48c0.07-0.28,0.15-0.55,0.23-0.82C65.29,66.18,65.33,66.05,65.37,65.93z
		 M96.46,64.12c-0.06-0.41-0.12-0.84-0.19-1.28c-0.04-0.25-0.06-0.5-0.11-0.74c-0.05-0.23-0.17-0.31-0.39-0.3
		c-0.14,0.01-0.28,0.02-0.43,0.03c-0.27,0.02-0.34,0.1-0.3,0.37c0.1,0.55,0.09,1.11-0.04,1.66c-0.07,0.29-0.14,0.58-0.2,0.88
		c-0.05,0.23,0.05,0.34,0.26,0.26c0.39-0.14,0.78-0.3,1.17-0.46C96.39,64.46,96.44,64.31,96.46,64.12z M83.85,41.55
		c-0.01,0.02-0.01,0.04-0.02,0.06c0.06,0.07,0.11,0.15,0.19,0.2c0.61,0.44,1.22,0.87,1.83,1.3c0.22,0.16,0.44,0.16,0.65-0.01
		c0.36-0.28,0.7-0.57,1.05-0.86c0.05-0.04,0.09-0.11,0.12-0.16c0.05-0.08,0.04-0.15-0.06-0.18c-0.09-0.02-0.19-0.06-0.29-0.06
		c-0.41-0.02-0.82-0.02-1.22-0.03c-0.18-0.01-0.35-0.02-0.53-0.05c-0.48-0.07-0.95-0.16-1.43-0.23
		C84.05,41.53,83.95,41.55,83.85,41.55z M71.95,67.64c0-0.03,0-0.07-0.01-0.1c-0.11-0.33-0.27-0.62-0.52-0.87
		c-0.05-0.05-0.19-0.06-0.26-0.03c-0.46,0.19-0.9,0.43-1.28,0.76c-0.14,0.12-0.22,0.28-0.17,0.46c0.09,0.35,0.27,0.66,0.53,0.9
		c0.03,0.03,0.1,0.04,0.14,0.03c0.3-0.12,0.6-0.23,0.88-0.37c0.18-0.09,0.34-0.22,0.49-0.35C71.89,67.95,71.96,67.81,71.95,67.64z
		 M86.79,43.8c0.08,0.2,0.15,0.4,0.25,0.58c0.12,0.23,0.28,0.26,0.46,0.06c0.15-0.16,0.29-0.35,0.41-0.54
		c0.53-0.85,1.2-1.55,2.14-1.95c0.11-0.05,0.21-0.14,0.28-0.23c0.05-0.06,0.1-0.19,0.07-0.23c-0.05-0.07-0.17-0.13-0.26-0.13
		c-0.11,0-0.22,0.05-0.32,0.1c-0.17,0.09-0.33,0.2-0.5,0.29c-0.8,0.42-1.49,1.01-2.21,1.54c-0.06,0.04-0.12,0.09-0.16,0.15
		C86.89,43.55,86.85,43.67,86.79,43.8z M66.29,70.2c0.22-0.04,0.42-0.08,0.61-0.11c0.3-0.06,0.52-0.22,0.58-0.54
		c0.02-0.11,0.1-0.14,0.19-0.16c0.21-0.05,0.42-0.1,0.63-0.15c0.34-0.09,0.69-0.17,1.03-0.26c0.22-0.06,0.31-0.2,0.25-0.38
		c-0.06-0.18-0.13-0.35-0.23-0.51c-0.1-0.17-0.23-0.2-0.41-0.11c-0.11,0.06-0.22,0.13-0.32,0.2c-0.29,0.2-0.57,0.43-0.93,0.51
		C66.88,68.86,66.59,69.52,66.29,70.2z M92.86,58.07c-0.01-0.11-0.02-0.2-0.03-0.29c-0.03-0.33-0.12-0.65-0.3-0.93
		c-0.13-0.22-0.32-0.36-0.58-0.34c-0.61,0.05-1.21,0.12-1.85,0.18c0.07,0.06,0.1,0.09,0.13,0.12c0.41,0.35,0.83,0.7,1.25,1.04
		c0.08,0.07,0.2,0.11,0.31,0.13C92.14,58.02,92.49,58.04,92.86,58.07z M88,61.02c-0.07-0.08-0.11-0.15-0.16-0.17
		c-0.56-0.2-1.12-0.38-1.68-0.57c-0.12-0.04-0.24,0.03-0.26,0.16c-0.09,0.52-0.18,1.04-0.26,1.56c-0.02,0.14,0.07,0.21,0.2,0.15
		c0.66-0.31,1.33-0.62,1.99-0.94C87.89,61.17,87.93,61.1,88,61.02z M60.03,64.5c-0.2,0.18-0.41,0.35-0.59,0.54
		c-0.3,0.3-0.62,0.56-1,0.75c-0.19,0.09-0.38,0.19-0.56,0.3c-0.11,0.07-0.19,0.17-0.29,0.26c0.04,0.03,0.05,0.05,0.06,0.05
		c0.46,0.14,0.91,0.28,1.37,0.41c0.13,0.04,0.22-0.03,0.28-0.15c0.26-0.52,0.52-1.04,0.81-1.54C60.23,64.89,60.2,64.72,60.03,64.5z
		 M61.06,67.35c0.43-0.02,0.76-0.25,0.89-0.63c0.05-0.15,0.05-0.3-0.05-0.43c-0.17-0.22-0.38-0.37-0.63-0.47
		c-0.24-0.1-0.44-0.05-0.63,0.12c-0.22,0.19-0.38,0.43-0.48,0.7c-0.1,0.26-0.04,0.45,0.23,0.55C60.6,67.25,60.84,67.29,61.06,67.35z
		 M83.17,42.06c-0.18,0.3-0.13,0.6-0.02,0.91c0.1,0.28,0.29,0.45,0.58,0.52c0.36,0.09,0.73,0.18,1.09,0.27
		c0.24,0.06,0.49,0.1,0.74,0.02C85.38,43.43,83.56,42.12,83.17,42.06z M79.13,36.5c-0.24,0-0.32,0.06-0.36,0.25
		c-0.16,0.67-0.32,1.34-0.47,2.01c-0.07,0.28-0.14,0.57-0.18,0.85c-0.01,0.09,0.05,0.19,0.08,0.28c0.06-0.03,0.15-0.05,0.18-0.1
		c0.23-0.38,0.47-0.77,0.52-1.23c0.05-0.48,0.21-0.92,0.5-1.31c0.09-0.11,0.15-0.24,0.22-0.37c0.05-0.1,0.05-0.21-0.07-0.26
		C79.39,36.57,79.22,36.53,79.13,36.5z M81.68,62.64c0.06-0.05,0.1-0.08,0.14-0.13c-0.26-0.25-0.36-0.55-0.32-0.9
		c0.02-0.17,0.08-0.34,0.12-0.5c0.03-0.12,0.08-0.23,0.12-0.35c0.03-0.11-0.02-0.18-0.13-0.21c-0.06-0.02-0.12-0.03-0.17-0.04
		c-0.48-0.06-0.96-0.12-1.44-0.17c-0.06-0.01-0.13,0.03-0.2,0.05c0.02,0.05,0.04,0.12,0.07,0.16c0.38,0.45,0.77,0.9,1.16,1.34
		C81.25,62.15,81.46,62.39,81.68,62.64z M82.42,67.17c0-0.08,0-0.13,0-0.18c-0.06-0.59-0.11-1.18-0.17-1.78
		c-0.02-0.2-0.21-0.3-0.38-0.18c-0.32,0.22-0.63,0.43-0.95,0.66c-0.19,0.14-0.19,0.26,0.01,0.41c0.34,0.25,0.69,0.49,1.03,0.74
		C82.1,66.94,82.24,67.04,82.42,67.17z M96.36,65.81c-0.34,0-0.41,0.08-0.32,0.42c0.04,0.14,0.09,0.27,0.13,0.41
		c0.02,0.07,0.04,0.15,0.05,0.23c0.03,0.15-0.04,0.26-0.17,0.33c-0.07,0.04-0.14,0.07-0.21,0.1c-0.46,0.19-0.92,0.38-1.37,0.58
		c-0.04,0.02-0.06,0.06-0.1,0.09c0.04,0.03,0.07,0.08,0.11,0.09c0.35,0.1,0.69,0.19,1.04,0.27c0.28,0.06,0.48-0.05,0.57-0.33
		c0.2-0.6,0.4-1.21,0.59-1.81c0.09-0.27,0.01-0.37-0.28-0.38C96.39,65.81,96.38,65.81,96.36,65.81z M95.29,65.76
		c-0.14,0.05-0.18,0.12-0.18,0.24c-0.01,0.25-0.11,0.35-0.36,0.38c-0.17,0.02-0.33,0.02-0.5,0.03c-0.2,0.01-0.39,0.01-0.59,0.03
		c-0.16,0.01-0.25,0.11-0.28,0.26c-0.03,0.12-0.07,0.25-0.04,0.36c0.05,0.15,0.14,0.29,0.25,0.4c0.04,0.04,0.19-0.01,0.27-0.04
		c0.5-0.21,1.01-0.42,1.51-0.64c0.23-0.1,0.33-0.36,0.21-0.58C95.5,66.04,95.38,65.91,95.29,65.76z M82.3,40.9
		c0.03-0.02,0.08-0.04,0.08-0.05c-0.01-0.06-0.02-0.12-0.05-0.17c-0.19-0.25-0.42-0.48-0.57-0.75c-0.32-0.58-0.61-1.18-0.91-1.77
		c-0.03-0.06-0.06-0.12-0.1-0.16c-0.06-0.07-0.12-0.06-0.15,0.04c-0.04,0.14-0.08,0.28-0.12,0.43c-0.07,0.23-0.06,0.46,0.03,0.68
		c0.31,0.73,0.81,1.28,1.5,1.66C82.1,40.85,82.2,40.87,82.3,40.9z M91.39,70.4c-0.15,0.01-0.3,0-0.44,0.04
		c-0.1,0.03-0.25,0.09-0.26,0.17c-0.02,0.08,0.07,0.22,0.15,0.28c0.35,0.24,0.72,0.46,1.08,0.69c0.12,0.08,0.26,0.06,0.36-0.03
		c0.23-0.23,0.45-0.46,0.66-0.72c0.12-0.15,0.09-0.21-0.09-0.28c-0.03-0.01-0.06-0.02-0.08-0.03C92.3,70.48,91.85,70.44,91.39,70.4z
		 M79.21,67.26c0.05,0.01,0.07,0.02,0.08,0.02c0.74,0,1.49,0,2.23,0c0.09,0,0.19-0.04,0.28-0.06c-0.04-0.17-0.1-0.29-0.24-0.37
		c-0.3-0.17-0.59-0.36-0.88-0.54c-0.22-0.13-0.43-0.12-0.61,0.06C79.78,66.64,79.51,66.94,79.21,67.26z M82.53,69.46
		c-0.03-0.18-0.05-0.34-0.08-0.5c-0.13-0.63-0.41-0.92-0.98-1.01c-0.2-0.03-0.41-0.06-0.57,0.1c-0.03,0.03-0.05,0.1-0.03,0.13
		c0.24,0.37,0.47,0.74,0.73,1.09c0.07,0.09,0.2,0.16,0.32,0.18C82.1,69.48,82.3,69.46,82.53,69.46z M79.89,64.82
		c0.03,0.09,0.04,0.24,0.12,0.3c0.11,0.09,0.23-0.03,0.33-0.08c0.02-0.01,0.04-0.03,0.06-0.04c0.35-0.25,0.71-0.5,1.05-0.76
		c0.07-0.05,0.1-0.15,0.15-0.23c-0.1-0.01-0.19-0.02-0.29-0.04c0,0-0.01,0-0.01,0c-0.48,0.14-0.8,0.03-1.11-0.37
		c-0.08-0.11-0.2-0.18-0.31-0.26c-0.04-0.03-0.11-0.02-0.17-0.02c0,0.06-0.02,0.12-0.01,0.17c0.08,0.3,0.17,0.6,0.26,0.91
		c0.01,0.05,0.02,0.1,0.01,0.14C79.96,64.62,79.93,64.71,79.89,64.82z M57.79,64.81c0.05-0.03,0.1-0.05,0.15-0.08
		c0.16-0.07,0.31-0.18,0.48-0.22c0.56-0.13,0.94-0.46,1.19-0.96c0.17-0.34,0.34-0.69,0.5-1.04c0.04-0.08,0.01-0.19,0.02-0.3
		C59.96,62.27,57.86,64.58,57.79,64.81z M83.28,45.29c0.09-0.04,0.19-0.07,0.28-0.12c0.18-0.11,0.35-0.22,0.51-0.35
		c0.29-0.23,0.26-0.26-0.03-0.43c-0.39-0.23-0.79-0.45-1.18-0.67c-0.16-0.09-0.25-0.05-0.25,0.14c0,0.13,0.02,0.26,0.06,0.38
		c0.09,0.28,0.18,0.56,0.29,0.83C83.02,45.2,83.12,45.29,83.28,45.29z M88.83,55.87c0.32,0.19,0.6,0.42,0.99,0.29
		c0.04-0.01,0.08,0,0.12-0.01c0.45-0.05,0.91-0.09,1.36-0.15c0.08-0.01,0.14-0.07,0.22-0.11c-0.04-0.07-0.06-0.15-0.11-0.2
		c-0.31-0.29-0.68-0.41-1.1-0.28c-0.15,0.04-0.3,0.08-0.46,0.11C89.5,55.58,89.15,55.65,88.83,55.87z M58.82,69.53
		c-0.01,0.02-0.01,0.04-0.02,0.06c0.05,0.03,0.1,0.06,0.14,0.1c0.17,0.18,0.35,0.35,0.51,0.53c0.19,0.22,0.22,0.48,0.08,0.74
		c-0.05,0.11-0.12,0.2-0.17,0.31c-0.07,0.14-0.04,0.23,0.12,0.25c0.15,0.02,0.31,0.02,0.47,0c0.28-0.03,0.39-0.16,0.3-0.43
		c-0.18-0.53-0.39-1.05-0.59-1.58c-0.05-0.14-0.23-0.25-0.34-0.21C59.14,69.38,58.98,69.46,58.82,69.53z M63.04,71.2
		c0.14-0.13,0.28-0.23,0.39-0.36c0.19-0.23,0.36-0.48,0.53-0.73c0.18-0.26,0.37-0.53,0.39-0.86c0-0.05-0.01-0.13-0.04-0.15
		c-0.04-0.03-0.12-0.03-0.17-0.01c-0.08,0.03-0.15,0.07-0.22,0.12c-0.43,0.32-0.73,0.74-0.93,1.24
		C62.89,70.68,62.9,70.92,63.04,71.2z M62.53,66.06c0.08-0.23,0.17-0.44,0.24-0.65c0.07-0.21-0.01-0.35-0.22-0.42
		c-0.24-0.08-0.48-0.14-0.72-0.22c-0.16-0.06-0.28-0.02-0.4,0.09c-0.18,0.16-0.2,0.21-0.02,0.36c0.33,0.29,0.68,0.55,1.03,0.82
		C62.45,66.04,62.48,66.04,62.53,66.06z M52.02,68.6c0.67-0.29,1.28-0.64,1.7-1.25c0.17-0.25,0.28-0.55,0.41-0.83
		c0.04-0.09-0.01-0.14-0.1-0.11c-0.09,0.03-0.19,0.07-0.25,0.13c-0.35,0.39-0.69,0.79-1.02,1.19C52.5,68.02,52.26,68.31,52.02,68.6z
		 M80.34,37.4c-0.02-0.08-0.04-0.17-0.08-0.25c-0.03-0.06-0.09-0.09-0.13-0.14c-0.04,0.05-0.11,0.09-0.13,0.14
		c-0.26,0.55-0.52,1.09-0.77,1.64c-0.02,0.05,0,0.11,0,0.17c0.06,0,0.14,0.02,0.19-0.01C79.98,38.59,80.28,38.07,80.34,37.4z
		 M66.22,68.96c-0.02-0.02-0.04-0.04-0.06-0.06c-0.12,0.07-0.26,0.13-0.36,0.22c-0.44,0.44-0.87,0.89-1.31,1.34
		c-0.09,0.09-0.18,0.19-0.27,0.29c0.06,0.13,0.14,0.17,0.25,0.1c0.22-0.15,0.47-0.27,0.66-0.46c0.34-0.35,0.64-0.74,0.95-1.13
		C66.15,69.17,66.17,69.06,66.22,68.96z M93.09,65.66c0.08-0.07,0.16-0.11,0.2-0.17c0.09-0.15,0.15-0.31,0.22-0.47
		c0.06-0.13-0.06-0.32-0.19-0.29c-0.36,0.08-0.72,0.19-1.08,0.3c-0.11,0.03-0.13,0.28-0.04,0.31
		C92.48,65.46,92.78,65.55,93.09,65.66z M61.78,68.23c0.01-0.16,0-0.36-0.18-0.48c-0.25-0.16-0.53-0.19-0.81-0.14
		c-0.16,0.02-0.19,0.11-0.09,0.24c0.15,0.22,0.32,0.42,0.5,0.62c0.06,0.06,0.16,0.1,0.25,0.11C61.76,68.61,61.78,68.59,61.78,68.23z
		 M78.82,55.93c0.07,0.14,0.12,0.24,0.17,0.34c0.11,0.2,0.13,0.41,0.06,0.63c-0.04,0.11-0.08,0.22-0.09,0.33
		c-0.01,0.05,0.03,0.15,0.07,0.16c0.27,0.1,0.68-0.19,0.7-0.47c0.02-0.22-0.08-0.39-0.21-0.55C79.34,56.16,79.13,56,78.82,55.93z
		 M93.56,62.9c-0.38,0.39-0.66,0.79-0.87,1.27c0.15,0,0.28,0.01,0.41,0c0.21-0.02,0.43-0.02,0.6-0.17c0.04-0.03,0.08-0.1,0.07-0.14
		C93.71,63.55,93.64,63.25,93.56,62.9z M77.66,40.75c0.2-1.04,0.39-2.07,0.59-3.11C77.62,38.59,77.5,39.64,77.66,40.75z M58.4,72.96
		c0-0.02,0.01-0.04,0.01-0.06c-0.04-0.02-0.08-0.05-0.12-0.06c-0.37-0.06-0.75-0.1-1.12-0.17c-0.36-0.06-0.51,0.17-0.69,0.46
		c0.17,0.03,0.31,0.08,0.45,0.07c0.33-0.03,0.65-0.09,0.98-0.15C58.07,73.02,58.24,72.99,58.4,72.96z M79.75,34.94
		c-0.01,0-0.03-0.01-0.04-0.01c-0.2,0.32-0.4,0.63-0.59,0.95c-0.07,0.11-0.02,0.21,0.1,0.24c0.16,0.04,0.31,0.08,0.47,0.1
		c0.21,0.03,0.27-0.03,0.24-0.24C79.88,35.63,79.81,35.29,79.75,34.94z M67.25,66.25c-0.05-0.03-0.08-0.04-0.11-0.05
		c-0.16-0.04-0.32-0.09-0.48-0.12c-0.42-0.07-0.72,0.13-0.8,0.54c-0.01,0.06,0.02,0.15,0.06,0.19c0.03,0.03,0.13,0.04,0.18,0.02
		c0.31-0.13,0.61-0.26,0.92-0.4C67.09,66.38,67.16,66.32,67.25,66.25z M89.57,66.11c0.22,0.11,0.37,0.16,0.54,0.08
		c0.08-0.04,0.18-0.06,0.27-0.09c0.2-0.07,0.4-0.14,0.6-0.22c0.14-0.06,0.21-0.3,0.11-0.36c-0.1-0.06-0.2-0.1-0.32-0.04
		c-0.32,0.16-0.64,0.31-0.95,0.47C89.72,65.98,89.66,66.05,89.57,66.11z M94.23,62.89c0.03,0.32,0.06,0.68,0.09,1.03
		c0.01,0.08,0.02,0.13,0.12,0.13c0.1,0,0.13-0.05,0.13-0.14c0.01-0.15,0.03-0.3,0.05-0.45c0.02-0.24,0.05-0.48,0.06-0.72
		c0.01-0.11-0.17-0.32-0.27-0.31c-0.08,0-0.19,0.18-0.19,0.3C94.24,62.78,94.23,62.81,94.23,62.89z M81.48,38.57
		c0.02-0.01,0.04-0.01,0.06-0.02c-0.03-0.3-0.05-0.6-0.09-0.9c-0.04-0.28-0.16-0.38-0.45-0.41c-0.09,0.18-0.09,0.36,0.02,0.53
		c0.05,0.09,0.1,0.18,0.15,0.27C81.28,38.22,81.38,38.39,81.48,38.57z M60.26,64.06c0.24-0.04,0.39-0.12,0.44-0.34
		c0.07-0.31,0.16-0.61,0.24-0.91c0.01-0.04-0.02-0.09-0.03-0.14c-0.04,0.03-0.1,0.04-0.12,0.08c-0.16,0.31-0.32,0.62-0.46,0.94
		C60.29,63.79,60.29,63.92,60.26,64.06z M79.37,57.85c-0.15,0.09-0.3,0.17-0.44,0.25c-0.02,0.01-0.04,0.06-0.03,0.09
		c0.09,0.26,0.19,0.52,0.3,0.82c0.09-0.22,0.15-0.4,0.24-0.57C79.57,58.22,79.47,58.05,79.37,57.85z M70.32,66.33
		c-0.14-0.14-0.25-0.15-0.36-0.08c-0.27,0.16-0.55,0.32-0.82,0.47c-0.03,0.01-0.06,0.03-0.07,0.05c-0.02,0.04-0.06,0.1-0.04,0.13
		c0.02,0.04,0.09,0.05,0.13,0.06c0.02,0.01,0.06-0.02,0.08-0.03c0.32-0.18,0.64-0.36,0.95-0.54C70.23,66.38,70.27,66.36,70.32,66.33
		z M52.41,69.61c0.07-0.08,0.15-0.14,0.2-0.22c0.16-0.25,0.31-0.5,0.47-0.75c0.07-0.11,0.03-0.16-0.09-0.21
		c-0.2,0.26-0.39,0.52-0.59,0.78C52.29,69.34,52.31,69.46,52.41,69.61z M94.08,64.97c-0.02,0-0.03,0-0.05,0
		c-0.08,0.2-0.16,0.4-0.23,0.6c-0.04,0.11,0.11,0.25,0.21,0.2c0.15-0.07,0.29-0.16,0.44-0.25C94.31,65.32,94.19,65.14,94.08,64.97z
		 M89.77,54.36c-0.02,0.02-0.05,0.04-0.08,0.07c0.03,0.03,0.05,0.07,0.08,0.07c0.37,0.08,0.75,0.17,1.12,0.24
		c0.04,0.01,0.08-0.04,0.12-0.06c-0.03-0.04-0.05-0.11-0.09-0.12C90.56,54.49,90.18,54.43,89.77,54.36z M83.82,69.46
		c0.27-0.18,0.54-0.35,0.81-0.53c0.04-0.03,0.04-0.12,0.06-0.19c-0.06,0.01-0.13-0.01-0.17,0.02c-0.24,0.16-0.47,0.34-0.71,0.51
		C83.72,69.33,83.75,69.38,83.82,69.46z M70.77,65.75c0.01,0.02,0.02,0.04,0.03,0.07c0.07-0.02,0.16-0.01,0.22-0.05
		c0.26-0.18,0.52-0.37,0.78-0.56c0.03-0.02,0.03-0.07,0.05-0.1c-0.04,0-0.08,0-0.1,0.01c-0.28,0.16-0.56,0.33-0.84,0.5
		C70.86,65.65,70.82,65.7,70.77,65.75z M62.3,68.02c0.06,0.07,0.12,0.15,0.19,0.22c0.02,0.02,0.08,0.03,0.1,0.02
		c0.12-0.06,0.23-0.13,0.35-0.19C62.66,67.81,62.48,67.8,62.3,68.02z M82.16,41.33c-0.02,0.05-0.04,0.09-0.05,0.13
		c-0.01,0.03-0.01,0.09,0.01,0.1c0.1,0.09,0.2,0.19,0.32,0.26c0.05,0.03,0.14-0.02,0.21-0.05c0.01-0.01,0.01-0.11-0.01-0.13
		C82.51,41.55,82.36,41.46,82.16,41.33z M51.93,70.05c-0.09,0.11-0.17,0.2-0.23,0.3c-0.02,0.03-0.01,0.1,0.02,0.15
		c0.01,0.03,0.08,0.05,0.11,0.04c0.11-0.05,0.22-0.12,0.35-0.19C52.08,70.24,52.02,70.16,51.93,70.05z M58.47,70.06
		c-0.05,0.03-0.07,0.04-0.08,0.05c-0.12,0.2-0.25,0.4-0.36,0.61c-0.01,0.02,0.02,0.08,0.04,0.08c0.03,0.01,0.09-0.01,0.11-0.03
		c0.11-0.19,0.22-0.38,0.33-0.58C58.52,70.17,58.49,70.12,58.47,70.06z M93.69,69.18c-0.03-0.19-0.05-0.37-0.09-0.55
		c-0.01-0.03-0.07-0.04-0.11-0.06c-0.02,0.03-0.05,0.07-0.05,0.1c0.01,0.13,0.04,0.25,0.04,0.38C93.5,69.17,93.56,69.2,93.69,69.18z
		 M73.09,62.88c0.33-0.23,0.35-0.22,0.04-0.47C73.1,62.57,72.91,62.7,73.09,62.88z M58.31,72.37c0.14-0.02,0.24-0.02,0.35-0.04
		c0.03-0.01,0.06-0.05,0.09-0.07c-0.04-0.02-0.07-0.05-0.11-0.05c-0.1,0-0.2,0.01-0.29,0.03c-0.04,0.01-0.08,0.04-0.13,0.06
		C58.25,72.33,58.29,72.36,58.31,72.37z M68.65,67.26c-0.06-0.01-0.09-0.02-0.12-0.01c-0.09,0.04-0.18,0.09-0.26,0.14
		c-0.02,0.01-0.03,0.06-0.04,0.09c0.04,0.01,0.08,0.04,0.11,0.02c0.08-0.04,0.16-0.09,0.24-0.15C68.6,67.33,68.62,67.31,68.65,67.26
		z M62.72,67.34c-0.1-0.07-0.13-0.22-0.26-0.12c-0.03,0.02-0.06,0.12-0.05,0.14C62.5,67.48,62.6,67.39,62.72,67.34z M80.56,36.47
		c0.16-0.2,0.17-0.29,0.04-0.36C80.43,36.3,80.43,36.33,80.56,36.47z M91.85,55.32c0.07,0.06,0.13,0.12,0.19,0.16
		c0.03,0.02,0.08,0.01,0.12,0.01c-0.01-0.04-0.01-0.08-0.02-0.11C92.07,55.28,91.99,55.25,91.85,55.32z M58.24,71.36
		c0.08,0.07,0.13,0.16,0.23,0.07c0.02-0.02,0.01-0.11-0.01-0.14C58.37,71.21,58.31,71.29,58.24,71.36z M65.98,67.97
		c-0.01-0.02-0.02-0.03-0.03-0.05c-0.09,0.04-0.18,0.07-0.26,0.11c-0.02,0.01-0.02,0.05-0.03,0.08c0.02,0.01,0.06,0.03,0.07,0.02
		C65.82,68.08,65.9,68.03,65.98,67.97z M82.44,63.07c0.01-0.02,0.03-0.04,0.04-0.06c-0.11-0.06-0.19-0.18-0.32-0.19
		c-0.01,0.02-0.02,0.03-0.03,0.05C82.23,62.93,82.34,63,82.44,63.07z M86.58,44.38c-0.07-0.09-0.13-0.18-0.29-0.15
		C86.38,44.32,86.4,44.48,86.58,44.38z M81.45,70.33c0,0.02,0,0.04,0,0.06c0.07,0.07,0.13,0.06,0.21-0.08
		C81.57,70.32,81.51,70.33,81.45,70.33z"/>
</g>
</svg>
